<svg xmlns="http://www.w3.org/2000/svg" width="600" height="600" viewBox="0 0 600 600" version="1.1"><path d="M 234 104 C 233.175 104.533, 232.950 104.969, 233.500 104.969 C 234.050 104.969, 235.175 104.533, 236 104 C 236.825 103.467, 237.050 103.031, 236.500 103.031 C 235.950 103.031, 234.825 103.467, 234 104 M 238 104.500 C 238 104.775, 238.225 105, 238.500 105 C 238.775 105, 239 104.775, 239 104.500 C 239 104.225, 238.775 104, 238.500 104 C 238.225 104, 238 104.225, 238 104.500 M 271.333 104.667 C 271.700 105.033, 272.300 105.033, 272.667 104.667 C 273.033 104.300, 272.733 104, 272 104 C 271.267 104, 270.967 104.300, 271.333 104.667 M 274.333 104.667 C 274.700 105.033, 275.300 105.033, 275.667 104.667 C 276.033 104.300, 275.733 104, 275 104 C 274.267 104, 273.967 104.300, 274.333 104.667 M 231 106 C 231 106.550, 231.477 107, 232.059 107 C 232.641 107, 232.840 106.550, 232.500 106 C 232.160 105.450, 231.684 105, 231.441 105 C 231.198 105, 231 105.450, 231 106 M 241.333 105.667 C 241.700 106.033, 242.300 106.033, 242.667 105.667 C 243.033 105.300, 242.733 105, 242 105 C 241.267 105, 240.967 105.300, 241.333 105.667 M 278.333 105.667 C 278.700 106.033, 279.300 106.033, 279.667 105.667 C 280.033 105.300, 279.733 105, 279 105 C 278.267 105, 277.967 105.300, 278.333 105.667 M 289 106 C 289 106.733, 289.300 107.033, 289.667 106.667 C 290.033 106.300, 290.033 105.700, 289.667 105.333 C 289.300 104.967, 289 105.267, 289 106 M 238.599 107.031 C 239.753 107.467, 242.795 107.792, 245.357 107.753 C 247.920 107.715, 249.809 107.476, 249.556 107.223 C 249.304 106.970, 246.262 106.645, 242.798 106.500 C 238.869 106.336, 237.290 106.536, 238.599 107.031 M 272.583 106.866 C 272.288 107.343, 272.956 108.555, 274.067 109.560 C 275.853 111.177, 276.011 111.192, 275.436 109.694 C 275.079 108.762, 274.272 107.993, 273.643 107.985 C 273.014 107.976, 273.175 107.533, 274 107 C 274.901 106.418, 275.025 106.025, 274.309 106.015 C 273.654 106.007, 272.877 106.390, 272.583 106.866 M 281 106.500 C 281 106.775, 281.225 107, 281.500 107 C 281.775 107, 282 106.775, 282 106.500 C 282 106.225, 281.775 106, 281.500 106 C 281.225 106, 281 106.225, 281 106.500 M 284.750 107.662 C 285.438 107.940, 286.563 107.940, 287.250 107.662 C 287.938 107.385, 287.375 107.158, 286 107.158 C 284.625 107.158, 284.063 107.385, 284.750 107.662 M 281.333 108.667 C 281.700 109.033, 282.300 109.033, 282.667 108.667 C 283.033 108.300, 282.733 108, 282 108 C 281.267 108, 280.967 108.300, 281.333 108.667 M 289 108.500 C 289 108.775, 289.225 109, 289.500 109 C 289.775 109, 290 108.775, 290 108.500 C 290 108.225, 289.775 108, 289.500 108 C 289.225 108, 289 108.225, 289 108.500 M 305.500 109 C 305.840 109.550, 306.343 110, 306.618 110 C 306.893 110, 306.840 109.550, 306.500 109 C 306.160 108.450, 305.657 108, 305.382 108 C 305.107 108, 305.160 108.450, 305.500 109 M 267.500 110 C 267.840 110.550, 269.104 110.993, 270.309 110.985 C 272.090 110.972, 272.219 110.788, 271 110 C 270.175 109.467, 268.911 109.024, 268.191 109.015 C 267.471 109.007, 267.160 109.450, 267.500 110 M 284.750 109.662 C 285.438 109.940, 286.563 109.940, 287.250 109.662 C 287.938 109.385, 287.375 109.158, 286 109.158 C 284.625 109.158, 284.063 109.385, 284.750 109.662 M 279 110.500 C 279 110.775, 279.225 111, 279.500 111 C 279.775 111, 280 110.775, 280 110.500 C 280 110.225, 279.775 110, 279.500 110 C 279.225 110, 279 110.225, 279 110.500 M 277 111.500 C 277 111.775, 277.225 112, 277.500 112 C 277.775 112, 278 111.775, 278 111.500 C 278 111.225, 277.775 111, 277.500 111 C 277.225 111, 277 111.225, 277 111.500 M 310 113.500 C 310 113.775, 310.225 114, 310.500 114 C 310.775 114, 311 113.775, 311 113.500 C 311 113.225, 310.775 113, 310.500 113 C 310.225 113, 310 113.225, 310 113.500 M 311 115.500 C 311 115.775, 311.225 116, 311.500 116 C 311.775 116, 312 115.775, 312 115.500 C 312 115.225, 311.775 115, 311.500 115 C 311.225 115, 311 115.225, 311 115.500 M 308 116.500 C 308 116.775, 308.225 117, 308.500 117 C 308.775 117, 309 116.775, 309 116.500 C 309 116.225, 308.775 116, 308.500 116 C 308.225 116, 308 116.225, 308 116.500 M 250.861 119.056 C 248.624 121.005, 248.615 121.057, 250.694 120.051 C 251.901 119.467, 253.165 118.542, 253.503 117.995 C 253.841 117.448, 253.916 117, 253.670 117 C 253.423 117, 252.159 117.925, 250.861 119.056 M 234.500 119 C 234.840 119.550, 235.343 120, 235.618 120 C 235.893 120, 235.840 119.550, 235.500 119 C 235.160 118.450, 234.657 118, 234.382 118 C 234.107 118, 234.160 118.450, 234.500 119 M 239.333 118.667 C 239.700 119.033, 240.300 119.033, 240.667 118.667 C 241.033 118.300, 240.733 118, 240 118 C 239.267 118, 238.967 118.300, 239.333 118.667 M 308.079 119.583 C 308.127 120.748, 308.364 120.985, 308.683 120.188 C 308.972 119.466, 308.936 118.603, 308.604 118.271 C 308.272 117.939, 308.036 118.529, 308.079 119.583 M 230.459 120.067 C 230.096 120.653, 230.070 121.403, 230.400 121.733 C 230.730 122.063, 231 121.782, 231 121.108 C 231 120.434, 231.520 120.203, 232.155 120.595 C 232.870 121.038, 233.038 120.870, 232.595 120.155 C 232.203 119.520, 231.710 119, 231.500 119 C 231.290 119, 230.821 119.480, 230.459 120.067 M 244 119.500 C 244 119.775, 244.225 120, 244.500 120 C 244.775 120, 245 119.775, 245 119.500 C 245 119.225, 244.775 119, 244.500 119 C 244.225 119, 244 119.225, 244 119.500 M 264.380 122.322 C 266.856 124.658, 267.823 126.376, 267.638 128.114 C 267.493 129.473, 266.988 131.241, 266.515 132.042 C 266.029 132.867, 266.599 132.673, 267.828 131.595 C 269.023 130.547, 270 128.915, 270 127.967 C 270 127.020, 269.330 125.689, 268.511 125.009 C 267.692 124.329, 267.312 123.305, 267.666 122.732 C 268.029 122.144, 267.828 121.988, 267.205 122.373 C 266.597 122.749, 265.612 122.143, 265.015 121.028 C 264.418 119.913, 263.238 119, 262.394 119 C 261.411 119, 262.126 120.196, 264.380 122.322 M 239 120.500 C 239 120.775, 239.225 121, 239.500 121 C 239.775 121, 240 120.775, 240 120.500 C 240 120.225, 239.775 120, 239.500 120 C 239.225 120, 239 120.225, 239 120.500 M 244.813 121.683 C 245.534 121.972, 246.397 121.936, 246.729 121.604 C 247.061 121.272, 246.471 121.036, 245.417 121.079 C 244.252 121.127, 244.015 121.364, 244.813 121.683 M 311 123.500 C 311 123.775, 311.225 124, 311.500 124 C 311.775 124, 312 123.775, 312 123.500 C 312 123.225, 311.775 123, 311.500 123 C 311.225 123, 311 123.225, 311 123.500 M 303.437 128.250 L 300.500 131.500 303.750 128.563 C 305.538 126.948, 307 125.485, 307 125.313 C 307 125.141, 306.859 125, 306.687 125 C 306.515 125, 305.052 126.463, 303.437 128.250 M 310 125.500 C 310 125.775, 310.225 126, 310.500 126 C 310.775 126, 311 125.775, 311 125.500 C 311 125.225, 310.775 125, 310.500 125 C 310.225 125, 310 125.225, 310 125.500 M 268 129 C 268 129.733, 268.300 130.033, 268.667 129.667 C 269.033 129.300, 269.033 128.700, 268.667 128.333 C 268.300 127.967, 268 128.267, 268 129 M 305.872 129.750 C 304.629 131.336, 304.664 131.371, 306.250 130.128 C 307.212 129.373, 308 128.585, 308 128.378 C 308 128.170, 307.830 128, 307.622 128 C 307.415 128, 306.627 128.787, 305.872 129.750 M 298.543 131.931 C 298.226 132.443, 298.350 133.098, 298.817 133.387 C 299.284 133.676, 299.667 133.257, 299.667 132.456 C 299.667 131.655, 299.543 131, 299.392 131 C 299.241 131, 298.859 131.419, 298.543 131.931 M 303 131.500 C 303 131.775, 303.225 132, 303.500 132 C 303.775 132, 304 131.775, 304 131.500 C 304 131.225, 303.775 131, 303.500 131 C 303.225 131, 303 131.225, 303 131.500 M 259.543 132.931 C 259.226 133.443, 259.429 134.147, 259.993 134.495 C 260.557 134.844, 261.914 134.845, 263.009 134.497 C 264.104 134.150, 265 133.446, 265 132.933 C 265 132.420, 263.902 132, 262.559 132 C 261.216 132, 259.859 132.419, 259.543 132.931 M 301 132.500 C 301 132.775, 301.225 133, 301.500 133 C 301.775 133, 302 132.775, 302 132.500 C 302 132.225, 301.775 132, 301.500 132 C 301.225 132, 301 132.225, 301 132.500 M 291 135.500 L 288.500 136.929 291.128 136.965 C 292.573 136.984, 294.315 136.325, 295 135.500 C 296.004 134.290, 295.979 134.007, 294.872 134.035 C 294.118 134.055, 292.375 134.714, 291 135.500 M 297 134.500 C 297 134.775, 297.225 135, 297.500 135 C 297.775 135, 298 134.775, 298 134.500 C 298 134.225, 297.775 134, 297.500 134 C 297.225 134, 297 134.225, 297 134.500 M 271.374 200.467 C 271.065 201.274, 271.004 202.511, 271.240 203.217 C 271.476 203.923, 271.906 203.262, 272.196 201.750 C 272.486 200.238, 272.546 199, 272.330 199 C 272.114 199, 271.684 199.660, 271.374 200.467 M 274.158 204 C 274.158 205.375, 274.385 205.938, 274.662 205.250 C 274.940 204.563, 274.940 203.438, 274.662 202.750 C 274.385 202.063, 274.158 202.625, 274.158 204 M 272 205.500 C 272 205.775, 272.225 206, 272.500 206 C 272.775 206, 273 205.775, 273 205.500 C 273 205.225, 272.775 205, 272.500 205 C 272.225 205, 272 205.225, 272 205.500 M 252 242.500 C 252 242.775, 252.225 243, 252.500 243 C 252.775 243, 253 242.775, 253 242.500 C 253 242.225, 252.775 242, 252.500 242 C 252.225 242, 252 242.225, 252 242.500 M 250.500 247 C 250.840 247.550, 251.343 248, 251.618 248 C 251.893 248, 251.840 247.550, 251.500 247 C 251.160 246.450, 250.657 246, 250.382 246 C 250.107 246, 250.160 246.450, 250.500 247 M 241.079 337.583 C 241.127 338.748, 241.364 338.985, 241.683 338.188 C 241.972 337.466, 241.936 336.603, 241.604 336.271 C 241.272 335.939, 241.036 336.529, 241.079 337.583 M 243 336.500 C 243 336.775, 243.225 337, 243.500 337 C 243.775 337, 244 336.775, 244 336.500 C 244 336.225, 243.775 336, 243.500 336 C 243.225 336, 243 336.225, 243 336.500 M 243.638 339.500 C 243.322 340.325, 243.499 341, 244.031 341 C 244.564 341, 245 340.325, 245 339.500 C 245 338.675, 244.823 338, 244.607 338 C 244.391 338, 243.955 338.675, 243.638 339.500" stroke="none" fill="#bcbcbc" fill-rule="evenodd"/><path d="M 457.163 71.250 C 453.378 76.888, 447.456 84.650, 444.002 88.500 C 440.548 92.350, 436.097 96.983, 434.111 98.795 C 432.125 100.607, 428.025 104.031, 425 106.404 C 421.975 108.776, 414.684 113.888, 408.798 117.764 C 402.157 122.137, 394.189 126.322, 387.798 128.792 C 382.134 130.982, 373.900 133.782, 369.500 135.013 C 365.100 136.245, 358.515 138.099, 354.866 139.134 C 351.217 140.169, 347.743 141.605, 347.146 142.325 C 346.548 143.045, 345.554 150.064, 344.936 157.924 C 344.289 166.159, 344.187 172.587, 344.694 173.094 C 345.202 173.602, 347.093 172.723, 349.159 171.021 C 351.196 169.341, 354.515 164.660, 356.851 160.170 L 360.959 152.274 368.229 149.755 C 372.228 148.370, 380.450 145.545, 386.500 143.478 C 392.550 141.410, 399.848 138.688, 402.718 137.428 C 405.588 136.169, 411.029 133.138, 414.809 130.692 C 418.590 128.246, 426.507 122.081, 432.403 116.990 C 438.299 111.900, 445.355 104.983, 448.082 101.618 C 450.810 98.253, 455.017 91.675, 457.432 87 C 459.847 82.325, 462.707 75.800, 463.788 72.500 C 464.869 69.200, 466.042 65.263, 466.396 63.750 C 466.877 61.689, 466.663 61, 465.541 61 C 464.718 61, 460.948 65.612, 457.163 71.250 M 138.621 65.804 C 138.273 66.368, 138.553 67.021, 139.244 67.256 C 139.935 67.491, 136.873 67.477, 132.440 67.224 C 125.637 66.837, 123.738 67.093, 120.258 68.868 C 117.991 70.025, 115.854 71.428, 115.509 71.986 C 115.164 72.544, 115.144 73.423, 115.464 73.941 C 115.799 74.483, 117.838 74.068, 120.273 72.963 C 123.076 71.690, 126.770 71.037, 131.239 71.022 C 135.604 71.008, 139.832 71.704, 143.239 72.999 C 146.133 74.099, 148.838 74.999, 149.250 74.999 C 149.662 75, 150 74.613, 150 74.139 C 150 73.665, 147.999 72.216, 145.553 70.919 C 143.108 69.622, 141.266 68.401, 141.460 68.206 C 141.655 68.012, 143.093 68.517, 144.657 69.329 C 146.221 70.141, 149.300 72.221, 151.500 73.952 C 153.700 75.683, 158.266 79.807, 161.647 83.117 C 165.027 86.427, 169.152 91.692, 170.812 94.818 C 172.472 97.943, 174.832 103.650, 176.056 107.500 C 177.281 111.350, 179.629 117.200, 181.274 120.500 C 182.920 123.800, 185.621 128.525, 187.278 131 C 188.935 133.475, 191.687 136.990, 193.395 138.811 C 195.792 141.367, 196.044 141.959, 194.500 141.404 C 193.400 141.008, 190.588 139.588, 188.250 138.247 C 184.906 136.330, 184 136.128, 184 137.301 C 184 138.122, 185.656 140.247, 187.680 142.024 C 189.704 143.801, 194.092 146.548, 197.430 148.127 C 201.731 150.161, 205.042 150.999, 208.790 150.999 C 212.024 151, 215.521 150.261, 217.790 149.097 C 219.830 148.051, 222.497 146.126, 223.716 144.819 C 224.935 143.512, 226.627 140.473, 227.477 138.066 C 228.326 135.658, 228.770 133.437, 228.463 133.129 C 228.155 132.822, 227.138 133.127, 226.202 133.807 C 225.266 134.487, 222.700 135.923, 220.500 136.999 C 218.300 138.076, 214.650 138.966, 212.390 138.978 C 209.589 138.993, 207.063 138.174, 204.463 136.410 C 202.364 134.986, 199.714 132.647, 198.573 131.212 C 197.433 129.778, 194.301 124.981, 191.614 120.552 C 188.927 116.123, 184.289 107.325, 181.308 101 C 176.282 90.336, 175.214 88.846, 166.622 80.500 C 161.160 75.194, 155.093 70.356, 151.842 68.714 C 148.809 67.181, 144.736 65.669, 142.791 65.354 C 140.807 65.032, 138.976 65.230, 138.621 65.804 M 174 75.813 C 174 76.260, 175.391 77.948, 177.092 79.563 C 178.793 81.178, 182.448 86.325, 185.214 91 C 187.981 95.675, 191.464 101.075, 192.955 103 C 194.445 104.925, 195.997 107.175, 196.405 108 C 196.812 108.825, 196.083 108.263, 194.785 106.750 C 193.487 105.237, 192.104 104, 191.712 104 C 191.321 104, 191 105.143, 191 106.540 C 191 107.937, 191.878 110.802, 192.952 112.906 C 194.026 115.011, 196.147 118.210, 197.666 120.015 C 199.185 121.821, 202.244 124.647, 204.464 126.296 C 206.684 127.945, 207.713 129.003, 206.750 128.647 C 205.787 128.291, 204.325 127.727, 203.500 127.393 C 202.675 127.059, 202 127.252, 202 127.820 C 202 128.389, 203.184 129.786, 204.631 130.924 C 206.077 132.062, 209.096 133.487, 211.339 134.091 C 213.581 134.695, 217.214 134.902, 219.412 134.550 C 221.610 134.199, 224.891 132.994, 226.704 131.874 C 228.517 130.754, 230.014 130.211, 230.030 130.668 C 230.047 131.126, 230.519 130.713, 231.080 129.750 C 231.641 128.787, 232.425 128, 232.822 128 C 233.220 128, 234.400 129.587, 235.444 131.526 C 236.489 133.466, 237.828 134.893, 238.422 134.698 C 239.015 134.503, 239.644 133.366, 239.820 132.172 C 239.995 130.977, 240.535 130, 241.020 130 C 241.504 130, 242.373 130.787, 242.950 131.750 C 243.950 133.417, 244.050 133.417, 245.050 131.750 C 245.627 130.787, 246.752 130, 247.550 130 C 248.347 130, 249 130.450, 249 131 C 249 131.550, 249.675 132, 250.500 132 C 251.325 132, 252 131.161, 252 130.135 C 252 129.109, 252.952 127.059, 254.116 125.580 C 255.750 123.503, 256.944 122.960, 259.366 123.195 C 262.223 123.473, 262.500 123.809, 262.500 127 C 262.500 130.401, 262.390 130.500, 258.603 130.500 C 255.526 130.500, 254.494 130.974, 253.700 132.750 C 253.081 134.135, 251.814 135, 250.406 135 C 249.148 135, 247.840 135.450, 247.500 136 C 247.160 136.550, 246.064 137, 245.063 137 C 244.063 137, 242.685 137.675, 242 138.500 C 241.315 139.325, 240.389 140, 239.941 140 C 239.493 140, 237.547 138.326, 235.616 136.280 C 233.686 134.234, 231.782 132.884, 231.386 133.281 C 230.989 133.678, 230.464 136.415, 230.220 139.363 C 229.905 143.164, 230.288 145.804, 231.537 148.437 C 232.506 150.479, 234.371 152.852, 235.681 153.711 C 237.940 155.191, 238.543 155.034, 247.282 150.702 C 252.352 148.188, 258.750 145.389, 261.500 144.481 C 264.250 143.573, 269.741 142.580, 273.703 142.274 C 278.441 141.909, 281.953 142.152, 283.966 142.986 C 285.749 143.724, 287.272 145.237, 287.617 146.611 C 288.008 148.167, 287.343 150.445, 285.660 153.318 C 284.258 155.710, 281.331 159.275, 279.156 161.240 C 276.980 163.206, 271.218 167.512, 266.350 170.811 C 261.483 174.109, 254.814 179.551, 251.531 182.904 C 247.651 186.868, 244.758 189, 243.263 189 C 241.998 189, 236.584 186.789, 231.232 184.087 C 224.429 180.652, 219.995 177.606, 216.500 173.964 C 213.750 171.099, 208.863 166.786, 205.640 164.378 C 201.195 161.057, 198.889 160, 196.090 160 C 194.060 160, 191.865 160.535, 191.210 161.190 C 190.290 162.110, 189.136 161.883, 186.124 160.190 C 183.981 158.985, 181.377 158, 180.336 158 C 179.296 158, 177.445 158.701, 176.223 159.557 C 175 160.413, 174 161.988, 174 163.057 C 174 164.546, 173.304 165, 171.026 165 C 168.703 165, 167.696 165.688, 166.428 168.138 C 165.401 170.126, 165.029 172.394, 165.415 174.323 C 165.750 175.998, 166.763 178.186, 167.667 179.184 C 168.571 180.183, 169.690 181, 170.155 181 C 170.620 181, 171 179.580, 171 177.845 C 171 174.902, 171.118 174.797, 172.752 176.275 C 173.715 177.147, 175.628 178.276, 177.002 178.784 C 178.376 179.292, 180.738 180.007, 182.250 180.373 C 184.046 180.807, 185 180.638, 185 179.884 C 185 179.249, 183.817 177.633, 182.371 176.293 C 180.600 174.651, 180.072 173.528, 180.754 172.846 C 181.436 172.164, 184.167 173.084, 189.133 175.667 C 193.185 177.775, 196.677 179.602, 196.893 179.726 C 197.108 179.850, 196.734 180.616, 196.060 181.428 C 195.386 182.240, 195.100 183.739, 195.424 184.759 C 195.747 185.780, 198.021 188.529, 200.476 190.869 C 203.126 193.395, 205.356 196.622, 205.964 198.812 C 206.528 200.840, 206.991 203.032, 206.994 203.683 C 206.997 204.333, 206.067 205.161, 204.928 205.523 C 203.682 205.918, 203.071 206.743, 203.396 207.590 C 203.694 208.366, 203.708 209, 203.429 209 C 203.149 209, 201.026 208.047, 198.710 206.883 C 196.395 205.718, 190.203 202.347, 184.951 199.391 C 178.921 195.997, 173.653 193.777, 170.655 193.366 C 166.366 192.778, 165.623 192.987, 162.972 195.527 C 160.372 198.018, 159.745 198.205, 157.472 197.169 C 156.061 196.526, 153.153 196, 151.010 196 C 148.117 196, 146.712 196.572, 145.557 198.223 C 144.701 199.445, 144 201.377, 144 202.516 C 144 203.985, 143.062 204.864, 140.772 205.543 C 138.996 206.069, 136.905 207.651, 136.124 209.058 C 135.178 210.764, 134.934 212.836, 135.392 215.278 C 135.770 217.293, 137.240 220.321, 138.659 222.006 C 140.078 223.692, 142.576 225.764, 144.212 226.610 C 145.848 227.455, 147.425 227.908, 147.717 227.616 C 148.010 227.324, 147.068 225.681, 145.624 223.966 C 144.181 222.250, 143 219.933, 143 218.816 C 143 217.273, 143.420 216.960, 144.750 217.512 C 145.713 217.912, 148.176 218.686, 150.224 219.234 C 152.272 219.782, 155.084 219.945, 156.474 219.596 C 157.863 219.247, 159 218.295, 159 217.481 C 159 216.666, 158.357 216, 157.571 216 C 156.786 216, 155.407 215.264, 154.507 214.364 C 153.445 213.302, 153.213 212.387, 153.846 211.754 C 154.479 211.121, 156.518 211.341, 159.660 212.381 C 162.322 213.261, 166.602 214.267, 169.172 214.616 C 173.656 215.225, 173.800 215.346, 172.761 217.625 C 171.981 219.337, 171.988 220.678, 172.786 222.429 C 173.394 223.764, 176.317 226.649, 179.281 228.838 C 182.245 231.028, 185.870 234.245, 187.336 235.987 C 188.801 237.729, 190.286 240.293, 190.636 241.684 C 191.048 243.327, 190.785 244.534, 189.885 245.126 C 189.123 245.627, 186.704 245.925, 184.510 245.789 C 181.516 245.603, 180.443 245.940, 180.211 247.141 C 180.024 248.115, 180.803 248.983, 182.202 249.357 C 183.466 249.696, 186.762 249.979, 189.527 249.986 C 192.480 249.994, 195.472 249.357, 196.777 248.443 C 198.481 247.250, 198.995 245.908, 198.978 242.693 C 198.966 240.387, 198.071 236.549, 196.989 234.164 C 195.515 230.916, 195.278 229.349, 196.046 227.914 C 196.688 226.714, 198.136 226, 199.927 226 C 201.909 226, 204.332 227.392, 207.837 230.544 C 210.617 233.042, 213.853 236.644, 215.029 238.546 C 216.205 240.449, 218.462 245.813, 220.044 250.466 C 221.627 255.120, 223.794 260.631, 224.861 262.713 C 225.927 264.796, 229.882 269.453, 233.650 273.062 C 237.417 276.671, 242.991 281.490, 246.036 283.771 C 249.081 286.052, 255.982 289.964, 261.372 292.466 C 266.762 294.967, 274.171 298.969, 277.836 301.357 C 281.501 303.746, 287.098 308.445, 290.273 311.800 C 293.447 315.154, 297.138 320.259, 298.475 323.143 C 299.811 326.027, 301.205 330.793, 301.573 333.734 C 302.058 337.618, 301.790 340.261, 300.595 343.390 C 299.690 345.760, 297.836 348.745, 296.475 350.024 C 295.114 351.302, 294 352.945, 294 353.674 C 294 354.403, 294.298 355, 294.662 355 C 295.026 355, 297.237 353.879, 299.575 352.509 C 301.913 351.139, 304.710 348.551, 305.790 346.759 C 306.870 344.966, 308.534 341.096, 309.488 338.159 C 310.676 334.498, 311.076 330.880, 310.760 326.659 C 310.503 323.230, 308.851 316.594, 307.033 311.690 C 305.237 306.844, 301.948 300.155, 299.724 296.825 C 297.316 293.218, 292.656 288.367, 288.197 284.823 C 284.081 281.552, 276.712 276.866, 271.821 274.410 C 265.851 271.412, 260.231 269.448, 254.715 268.434 C 250.197 267.603, 244.250 265.997, 241.500 264.865 C 238.750 263.734, 235.428 262.127, 234.118 261.294 C 232.434 260.224, 232.094 259.560, 232.959 259.025 C 233.631 258.610, 238.191 259.559, 243.091 261.135 C 247.991 262.711, 253.139 264, 254.531 264 C 255.924 264, 257.305 263.368, 257.601 262.596 C 257.898 261.824, 257.478 259.237, 256.669 256.846 C 255.859 254.456, 255.404 252.162, 255.658 251.750 C 255.911 251.338, 256.725 251, 257.466 251 C 258.207 251, 262.256 253.925, 266.462 257.500 C 271.096 261.438, 275.026 264, 276.433 264 C 277.710 264, 279.319 263.321, 280.008 262.490 C 280.762 261.582, 281.057 259.491, 280.748 257.240 C 280.467 255.183, 278.583 249.283, 276.563 244.129 C 274.542 238.976, 271.708 230.094, 270.264 224.393 C 268.820 218.692, 267.915 213.751, 268.253 213.414 C 268.591 213.076, 269.292 213.062, 269.810 213.383 C 270.329 213.704, 271.687 216.336, 272.828 219.233 C 273.969 222.130, 276.054 228.363, 277.461 233.084 C 278.949 238.076, 282.212 245.364, 285.260 250.505 C 288.171 255.415, 294.056 263.117, 298.500 267.835 C 302.900 272.505, 308.678 278.053, 311.340 280.163 C 314.002 282.274, 316.814 284, 317.590 284 C 318.365 284, 319 283.374, 319 282.609 C 319 281.844, 317.169 279.031, 314.931 276.359 C 312.692 273.686, 309.819 269.475, 308.545 267 C 307.271 264.525, 304.787 258.225, 303.025 253 C 301.087 247.253, 299.611 240.537, 299.290 236 C 298.997 231.875, 299.255 225.313, 299.862 221.417 C 300.470 217.521, 301.743 211.896, 302.691 208.917 C 303.646 205.919, 308.170 197.919, 312.823 191 C 318.389 182.725, 322.510 175.224, 325.018 168.807 C 327.101 163.475, 329.113 157.288, 329.490 155.057 C 329.867 152.825, 330.530 151, 330.962 151 C 331.395 151, 333.493 152.603, 335.624 154.562 C 339.255 157.898, 339.521 157.988, 339.830 155.985 C 340.011 154.808, 338.984 151.443, 337.547 148.506 C 335.636 144.601, 333.652 142.344, 330.162 140.104 C 327.356 138.303, 324.699 135.592, 323.711 133.521 C 322.788 131.584, 322.371 130, 322.784 130 C 323.197 130, 325.189 131.124, 327.211 132.497 C 329.232 133.871, 331.109 134.633, 331.381 134.192 C 331.654 133.751, 331.500 131.717, 331.039 129.672 C 330.578 127.628, 329.444 124.800, 328.519 123.388 C 327.594 121.977, 324.863 119.624, 322.450 118.161 C 320.037 116.697, 318.049 114.894, 318.032 114.154 C 318.014 113.414, 317.132 111.589, 316.071 110.099 C 314.761 108.260, 314.435 106.925, 315.055 105.945 C 315.558 105.150, 315.976 103.407, 315.985 102.071 C 315.993 100.735, 315.470 98.177, 314.823 96.387 C 313.763 93.456, 313.920 92.720, 316.398 88.975 C 317.912 86.688, 318.928 84.595, 318.657 84.324 C 318.386 84.053, 315.506 85.303, 312.258 87.102 C 309.010 88.902, 305.145 92.053, 303.670 94.106 C 301.502 97.121, 300.020 98.044, 295.945 98.918 C 293.171 99.513, 288.939 100, 286.540 100 C 284.141 100, 279.651 99.033, 276.563 97.851 C 272.033 96.118, 270.475 95.918, 268.502 96.817 C 267.156 97.430, 265.818 99.072, 265.528 100.466 C 265.237 101.860, 264.782 104.064, 264.515 105.364 C 264.115 107.312, 263.543 107.649, 261.265 107.276 C 259.744 107.027, 254.281 105.013, 249.125 102.799 C 240.771 99.214, 239.195 98.849, 234.650 99.452 C 231.845 99.824, 228.976 100.605, 228.275 101.187 C 227.574 101.769, 227 103.510, 227 105.057 C 227 106.604, 227.479 109.129, 228.064 110.668 C 228.878 112.810, 228.752 114.659, 227.524 118.563 C 226.367 122.241, 226.190 124.370, 226.889 126.208 L 227.857 128.755 223.679 127.820 C 221.380 127.305, 218.150 126.100, 216.500 125.141 C 214.850 124.183, 211.250 119.918, 208.500 115.664 C 205.750 111.410, 199.869 102.658, 195.431 96.215 C 190.024 88.366, 185.421 82.933, 181.480 79.750 C 178.246 77.138, 175.239 75, 174.800 75 C 174.360 75, 174 75.366, 174 75.813 M 233.250 104.220 C 232.012 104.817, 231 105.717, 231 106.220 C 231 106.723, 231.880 106.855, 232.956 106.514 C 234.032 106.173, 236.619 106.403, 238.706 107.026 C 240.793 107.649, 244.300 108.010, 246.500 107.829 L 250.500 107.500 244.500 105.872 C 241.200 104.976, 237.825 103.994, 237 103.689 C 236.175 103.384, 234.488 103.623, 233.250 104.220 M 271 106.500 C 271 108.357, 270.471 109, 268.941 109 C 267.809 109, 267.160 109.450, 267.500 110 C 267.840 110.550, 268.939 111, 269.942 111 C 270.946 111, 272.002 110.100, 272.290 109 C 272.577 107.900, 273.417 107.007, 274.156 107.015 C 275.275 107.028, 275.274 107.174, 274.148 107.887 C 273.084 108.562, 273.268 109.074, 275.013 110.297 C 276.232 111.150, 277.853 111.610, 278.615 111.318 C 279.377 111.025, 280 110.334, 280 109.782 C 280 109.183, 281.360 109.033, 283.366 109.409 C 285.217 109.756, 287.467 109.758, 288.366 109.413 C 289.265 109.068, 289.964 107.822, 289.921 106.643 C 289.878 105.464, 289.615 105.063, 289.338 105.750 C 289.060 106.438, 287.633 106.993, 286.167 106.985 C 284.700 106.977, 281.700 106.321, 279.500 105.529 C 277.300 104.736, 274.488 104.068, 273.250 104.044 C 271.505 104.010, 271 104.561, 271 106.500 M 306.346 109.579 C 307.476 110.999, 308 113.588, 308 117.749 L 308 123.840 302.300 128.920 C 299.166 131.714, 295.903 134.016, 295.050 134.035 C 294.198 134.055, 292.375 134.714, 291 135.500 C 288.688 136.822, 288.657 136.932, 290.585 136.965 C 291.731 136.984, 295.818 135.468, 299.666 133.595 C 303.514 131.722, 307.863 128.763, 309.331 127.018 C 311.346 124.624, 312 122.758, 312 119.409 C 312 115.649, 311.441 114.399, 308.346 111.235 C 306.337 109.181, 305.437 108.435, 306.346 109.579 M 462.473 122.083 C 458.638 125.978, 451.450 132.586, 446.500 136.766 C 441.550 140.947, 433.786 146.788, 429.248 149.748 C 424.709 152.708, 416.834 157.092, 411.748 159.491 C 406.661 161.891, 397.219 165.667, 390.765 167.883 C 384.311 170.099, 375.697 172.601, 371.623 173.443 C 367.549 174.284, 358.879 175.429, 352.357 175.987 C 341.691 176.899, 340.283 177.246, 338.340 179.451 C 337.152 180.799, 335.293 184.286, 334.208 187.201 C 333.123 190.115, 331.707 196.502, 331.062 201.394 C 330.295 207.203, 330.227 210.627, 330.867 211.267 C 331.508 211.908, 333.577 210.519, 336.833 207.263 C 339.575 204.521, 342.711 200.527, 343.803 198.389 C 344.894 196.250, 346.710 193.665, 347.838 192.645 C 349.226 191.391, 352.470 190.502, 357.867 189.898 C 362.254 189.407, 370.942 187.688, 377.172 186.078 C 383.402 184.468, 391.875 181.933, 396 180.445 C 400.125 178.957, 407.100 176.075, 411.500 174.041 C 415.900 172.007, 423.757 167.705, 428.961 164.480 C 434.164 161.256, 441.958 155.240, 446.279 151.111 C 450.600 146.983, 456.531 139.981, 459.458 135.552 C 462.386 131.124, 466.186 124.688, 467.905 121.250 C 469.623 117.813, 470.673 115, 470.238 115 C 469.802 115, 466.308 118.187, 462.473 122.083 M 251.341 118.474 C 250.183 119.285, 247.589 119.886, 245.576 119.810 C 243.563 119.735, 241.683 119.296, 241.399 118.836 C 241.115 118.376, 239.588 118, 238.006 118 C 236.424 118, 233.976 118.439, 232.565 118.975 C 231.154 119.512, 230 120.402, 230 120.954 C 230 121.592, 230.896 121.549, 232.466 120.834 C 234.291 120.002, 236.389 120.003, 240.542 120.837 C 245.031 121.738, 246.811 121.688, 249.454 120.584 C 251.270 119.825, 253.062 118.708, 253.437 118.102 C 253.812 117.496, 253.967 117, 253.782 117 C 253.596 117, 252.498 117.663, 251.341 118.474 M 263.265 121.126 C 264.787 122.261, 266.474 124.017, 267.016 125.029 C 267.658 126.229, 267.661 127.761, 267.025 129.435 C 266.280 131.393, 265.347 132, 263.084 132 C 261.453 132, 259.838 132.453, 259.496 133.007 C 259.153 133.561, 259.570 134.281, 260.421 134.608 C 261.273 134.935, 263.391 134.369, 265.129 133.351 C 266.867 132.333, 268.766 130.742, 269.348 129.815 C 270.124 128.581, 270.019 127.378, 268.954 125.315 C 268.154 123.767, 266.600 121.727, 265.500 120.783 C 264.400 119.839, 262.825 119.066, 262 119.065 C 261.077 119.064, 261.563 119.856, 263.265 121.126 M 471.806 171.380 C 468.848 173.790, 462.697 178.302, 458.137 181.407 C 453.576 184.512, 446.722 188.626, 442.904 190.548 C 439.087 192.471, 433.652 194.955, 430.827 196.068 C 428.003 197.181, 416.873 200.285, 406.096 202.965 C 395.318 205.644, 382.900 208.530, 378.500 209.377 C 374.100 210.223, 366.225 211.358, 361 211.898 C 355.775 212.438, 344.780 213.163, 336.567 213.509 C 326.420 213.936, 320.716 214.612, 318.772 215.618 C 317.199 216.431, 315.033 218.538, 313.960 220.299 C 312.527 222.648, 312.006 225.321, 312.004 230.343 C 312.002 234.107, 312.925 241.757, 314.057 247.343 C 315.188 252.929, 317.635 262.068, 319.496 267.651 C 321.356 273.235, 324.746 281.516, 327.028 286.055 C 329.310 290.593, 333.677 298.349, 336.733 303.289 C 339.789 308.229, 345.536 316.148, 349.505 320.886 C 353.474 325.623, 357.907 330.589, 359.357 331.921 C 360.806 333.252, 362.222 334.111, 362.503 333.830 C 362.784 333.549, 358.519 323.635, 353.024 311.798 C 346.554 297.860, 341.812 286.033, 339.567 278.233 C 337.661 271.609, 335.404 262.210, 334.554 257.345 C 333.703 252.480, 333.005 245.478, 333.003 241.785 C 333.001 236.401, 333.347 234.890, 334.750 234.161 C 335.712 233.661, 343.925 233.005, 353 232.703 C 364.283 232.327, 374.049 231.333, 383.888 229.557 C 391.802 228.130, 401.702 225.786, 405.888 224.349 C 410.075 222.912, 417.383 219.793, 422.130 217.418 C 426.876 215.044, 436.102 209.529, 442.632 205.164 C 450.429 199.953, 457.275 194.343, 462.571 188.827 C 467.007 184.206, 472.518 177.655, 474.818 174.268 C 477.118 170.881, 479 167.860, 479 167.555 C 479 167.250, 478.591 167, 478.092 167 C 477.592 167, 474.763 168.971, 471.806 171.380 M 215.250 193.662 C 214.563 193.940, 214 195.637, 214 197.434 C 214 199.231, 213.518 202.083, 212.930 203.772 C 212.190 205.893, 210.745 207.287, 208.255 208.280 L 204.651 209.717 216.076 211.868 C 222.359 213.051, 227.838 214.014, 228.250 214.009 C 228.662 214.004, 229 213.595, 229 213.100 C 229 212.605, 227.407 208.394, 225.459 203.742 C 222.891 197.607, 221.230 194.970, 219.412 194.142 C 218.034 193.514, 216.815 193.036, 216.703 193.079 C 216.591 193.122, 215.938 193.385, 215.250 193.662 M 271.559 199.905 C 271.148 200.570, 271.088 202.213, 271.425 203.557 C 271.762 204.901, 272.705 206, 273.519 206 C 274.334 206, 275 205.186, 275 204.191 C 275 203.196, 274.394 201.553, 273.653 200.540 C 272.672 199.199, 272.102 199.026, 271.559 199.905 M 377.969 245.946 C 370.561 250.866, 362.729 256.708, 360.565 258.928 C 358.401 261.147, 356.896 263.230, 357.222 263.555 C 357.548 263.881, 359.153 263.455, 360.789 262.609 L 363.764 261.071 363.249 267.481 C 362.964 271.042, 363.271 276.018, 363.941 278.679 C 364.604 281.313, 368.210 290.450, 371.954 298.984 C 375.698 307.518, 380.165 318.893, 381.881 324.262 C 383.596 329.631, 385 336.088, 385 338.611 C 385 341.134, 384.318 344.636, 383.484 346.393 C 382.650 348.150, 380.737 350.305, 379.234 351.182 C 377.730 352.058, 374.203 353.084, 371.395 353.462 C 367.685 353.960, 365.237 353.708, 362.440 352.539 C 360.322 351.655, 356.164 349.099, 353.200 346.861 C 349.497 344.065, 347.486 343.114, 346.778 343.822 C 346.069 344.531, 346.911 346.275, 349.468 349.395 C 351.514 351.893, 355.264 355.311, 357.799 356.990 C 360.335 358.670, 364.649 360.709, 367.386 361.522 C 370.123 362.335, 374.964 363, 378.144 363 C 381.562 363, 386.211 362.145, 389.518 360.908 C 392.594 359.757, 396.836 357.169, 398.944 355.158 C 401.206 353, 403.232 349.859, 403.884 347.500 C 404.492 345.300, 404.991 340.332, 404.994 336.460 C 404.997 332.588, 404.309 326.738, 403.464 323.460 C 402.619 320.182, 400.079 314.350, 397.819 310.500 C 395.559 306.650, 390.400 297.818, 386.353 290.873 C 381.360 282.304, 378.822 276.840, 378.455 273.873 C 378.158 271.468, 378.300 268.164, 378.771 266.530 L 379.628 263.561 381.529 266.780 C 382.575 268.551, 383.784 270, 384.216 270 C 384.647 270, 385 267.811, 385 265.136 C 385 262.462, 385.425 258.030, 385.945 255.289 C 386.465 252.548, 388.130 247.649, 389.645 244.402 C 391.160 241.156, 392.572 238.162, 392.783 237.750 C 392.994 237.338, 392.778 237, 392.302 237 C 391.826 237, 385.376 241.026, 377.969 245.946 M 250.179 244.066 C 250.355 245.870, 251.095 247.541, 251.821 247.780 C 252.775 248.094, 253.053 247.303, 252.821 244.934 C 252.645 243.130, 251.905 241.459, 251.179 241.220 C 250.225 240.906, 249.947 241.697, 250.179 244.066 M 295 276 C 295 278.651, 295.667 280.667, 296.977 281.977 C 298.066 283.066, 299.639 283.692, 300.477 283.370 C 301.404 283.015, 302 281.527, 302 279.567 C 302 277.496, 301.175 275.574, 299.686 274.174 C 298.413 272.978, 296.838 272, 296.186 272 C 295.469 272, 295 273.583, 295 276 M 233.347 293.538 C 233.023 294.383, 233.390 296.746, 234.164 298.788 C 235.246 301.643, 236.198 302.573, 238.286 302.816 C 240.765 303.105, 241 302.840, 241 299.755 C 241 297.738, 240.179 295.495, 238.961 294.189 C 237.840 292.985, 236.250 292, 235.430 292 C 234.609 292, 233.672 292.692, 233.347 293.538 M 313.289 294.250 C 313.577 295.488, 314.969 299.200, 316.382 302.500 C 317.914 306.076, 318.962 310.419, 318.976 313.250 C 318.992 316.379, 319.427 317.995, 320.250 317.985 C 320.938 317.976, 321.958 317.639, 322.517 317.235 C 323.076 316.831, 324.236 315.405, 325.095 314.067 C 326.294 312.197, 327.560 311.618, 330.559 311.567 C 333.198 311.522, 334.556 311.014, 334.750 310 C 334.930 309.054, 332.979 307.429, 329.469 305.601 C 326.171 303.885, 322.037 300.521, 319.329 297.351 C 316.814 294.408, 314.309 292, 313.762 292 C 313.215 292, 313.002 293.012, 313.289 294.250 M 239.544 319.126 C 240.345 321.395, 241 324.544, 241 326.123 C 241 328.026, 239.761 330.366, 237.325 333.062 C 235.304 335.299, 232.401 337.775, 230.875 338.565 C 229.348 339.354, 226.931 340, 225.503 340 C 223.666 340, 222.409 339.125, 221.203 337.006 C 220.267 335.360, 218.968 334.010, 218.317 334.006 C 217.667 334.003, 216.836 334.941, 216.471 336.091 C 216.106 337.241, 214.383 338.778, 212.643 339.505 C 210.902 340.232, 205.963 341.316, 201.667 341.914 C 197.370 342.511, 190.625 343.003, 186.678 343.006 C 182.730 343.009, 177.721 343.505, 175.547 344.109 C 173.373 344.712, 170.077 346.723, 168.222 348.578 C 166.368 350.432, 165.119 352.384, 165.447 352.915 C 165.827 353.529, 167.153 353.494, 169.091 352.818 C 170.799 352.223, 175.732 351.972, 180.319 352.246 C 186.589 352.622, 189.902 353.409, 194.500 355.618 C 199.662 358.097, 201.687 358.500, 209 358.500 C 216.600 358.500, 218.485 358.090, 226.802 354.630 C 235.803 350.885, 236.385 350.778, 244.802 351.319 C 249.586 351.626, 257.100 352.345, 261.499 352.918 C 265.899 353.490, 271.974 353.682, 274.999 353.345 C 279.921 352.795, 281.004 352.214, 285.287 347.830 C 287.920 345.135, 289.809 342.500, 289.485 341.976 C 289.139 341.415, 287.937 341.650, 286.571 342.546 C 285.292 343.384, 282.732 344.503, 280.882 345.034 C 278.067 345.841, 276.657 345.578, 272.249 343.421 C 268.810 341.738, 265.160 338.711, 261.740 334.706 C 258.858 331.330, 254.970 327.057, 253.100 325.210 C 251.229 323.362, 247.410 320.309, 244.613 318.425 C 241.815 316.541, 239.203 315, 238.808 315 C 238.412 315, 238.744 316.857, 239.544 319.126 M 352 332.875 C 352 333.356, 353.566 337.187, 355.480 341.388 C 357.827 346.537, 359.761 349.390, 361.417 350.144 C 362.767 350.759, 364.586 350.989, 365.459 350.654 C 366.331 350.319, 367.309 349.359, 367.631 348.520 C 367.952 347.682, 367.931 345.861, 367.583 344.474 C 367.192 342.918, 364.376 340.054, 360.225 336.992 C 356.526 334.263, 353.163 332.023, 352.750 332.015 C 352.337 332.007, 352 332.394, 352 332.875 M 241 337.378 C 241 338.135, 241.686 339.324, 242.524 340.020 C 243.362 340.716, 244.304 341.030, 244.615 340.718 C 244.927 340.406, 244.886 339.217, 244.524 338.075 C 244.162 336.934, 243.221 336, 242.433 336 C 241.645 336, 241 336.620, 241 337.378 M 332.546 339.856 C 332.222 340.876, 332.531 343.464, 333.233 345.606 C 334.263 348.750, 334.989 349.500, 337.004 349.500 C 339.086 349.500, 339.552 348.964, 339.812 346.267 C 340.043 343.877, 339.467 342.376, 337.608 340.517 C 336.223 339.132, 334.651 338, 334.113 338 C 333.575 338, 332.870 338.835, 332.546 339.856 M 169.615 375.639 C 166.198 376.689, 163.184 378.695, 159.581 382.320 C 156.326 385.595, 153.985 389.013, 153.216 391.616 C 152.547 393.880, 152 398.187, 152 401.187 C 152 405.156, 152.749 408.118, 154.750 412.064 C 156.417 415.352, 159.190 418.758, 161.792 420.716 C 164.153 422.492, 167.978 424.501, 170.292 425.179 C 172.606 425.858, 177.875 426.408, 182 426.401 C 186.125 426.394, 191.197 425.813, 193.272 425.109 C 196.091 424.154, 197.417 422.937, 198.522 420.293 C 199.335 418.348, 200 415.686, 200 414.378 C 200 412.981, 199.409 412, 198.567 412 C 197.779 412, 196.858 412.872, 196.520 413.938 C 196.181 415.005, 194.387 417.209, 192.533 418.837 C 190.609 420.526, 187.426 422.090, 185.118 422.480 C 182.498 422.923, 179.167 422.609, 175.660 421.590 C 171.768 420.458, 169.248 418.910, 166.690 416.079 C 164.734 413.913, 162.656 410.422, 162.072 408.321 C 161.489 406.219, 161.019 401.800, 161.028 398.500 C 161.038 394.806, 161.762 390.918, 162.913 388.384 C 163.941 386.120, 166.304 383.107, 168.163 381.689 C 170.022 380.271, 173.640 378.641, 176.203 378.067 C 178.765 377.492, 182.356 377.307, 184.181 377.654 C 186.006 378.001, 188.677 378.877, 190.115 379.599 C 191.553 380.321, 193.487 382.507, 194.412 384.456 C 195.337 386.405, 196.810 388, 197.685 388 C 199.031 388, 199.173 387.125, 198.606 382.301 C 198.237 379.167, 197.761 376.428, 197.547 376.214 C 197.333 376, 195.435 375.425, 193.329 374.936 C 191.223 374.448, 186.125 374.068, 182 374.094 C 177.875 374.119, 172.302 374.814, 169.615 375.639 M 223.951 375.282 C 223.099 375.952, 218.656 386.175, 214.077 398 C 209.498 409.825, 205.302 420.063, 204.753 420.750 C 204.204 421.438, 202.652 422, 201.304 422 C 199.509 422, 198.943 422.468, 199.190 423.750 C 199.477 425.243, 200.701 425.500, 207.513 425.500 C 213.946 425.500, 215.500 425.208, 215.500 424 C 215.500 423.175, 214.487 422.356, 213.248 422.180 C 211.350 421.911, 211.100 421.440, 211.657 419.180 C 212.020 417.706, 213.077 414.250, 214.004 411.500 L 215.691 406.500 223.091 406.500 L 230.492 406.500 232.686 412.500 C 233.894 415.800, 234.908 419.256, 234.941 420.180 C 234.976 421.186, 234.096 421.989, 232.750 422.180 C 231.512 422.356, 230.500 423.175, 230.500 424 C 230.500 425.283, 233.389 425.500, 250.500 425.500 C 267.336 425.500, 270.500 425.270, 270.500 424.045 C 270.500 423.245, 269.375 422.326, 268 422.004 C 265.617 421.446, 265.477 421.004, 265 412.611 C 264.725 407.767, 264.863 403.580, 265.307 403.308 C 265.751 403.035, 267.190 403.082, 268.506 403.412 C 270.071 403.805, 273.024 407.115, 277.042 412.982 C 280.421 417.915, 284.606 422.820, 286.343 423.881 C 289.165 425.605, 291.568 425.817, 309 425.878 C 323.093 425.927, 329.886 425.549, 333.500 424.515 C 336.250 423.728, 340.391 421.693, 342.701 419.992 C 345.311 418.070, 347.856 414.930, 349.421 411.699 C 350.806 408.840, 352.226 404.644, 352.577 402.376 C 352.991 399.702, 352.617 396.186, 351.513 392.376 C 350.231 387.947, 348.730 385.461, 345.422 382.283 C 342.449 379.426, 339.301 377.562, 335.666 376.505 C 331.631 375.332, 326.621 375.014, 315.481 375.222 C 305.530 375.409, 300.540 375.873, 300.287 376.636 C 300.079 377.261, 301.280 378.250, 302.955 378.834 L 306 379.896 306 399.748 C 306 413.855, 305.653 419.947, 304.800 420.800 C 304.140 421.460, 302.790 422, 301.800 422 C 300.810 422, 300 422.439, 300 422.975 C 300 423.594, 298.995 423.572, 297.250 422.914 C 295.738 422.344, 293.039 420.468, 291.254 418.746 C 289.469 417.025, 285.915 412.495, 283.356 408.682 L 278.704 401.748 282.267 398.624 C 284.227 396.906, 286.318 394.517, 286.915 393.316 C 287.512 392.114, 287.998 389.639, 287.996 387.816 C 287.994 385.992, 287.147 383.114, 286.114 381.420 C 285.081 379.726, 282.652 377.588, 280.717 376.670 C 277.983 375.373, 274.258 375, 264.026 375 C 252.148 375, 250.886 375.168, 251.182 376.706 C 251.363 377.645, 252.633 378.677, 254.005 379.001 L 256.500 379.589 256.770 399.655 C 257 416.712, 256.810 419.913, 255.503 420.997 C 254.658 421.699, 252.093 422.273, 249.803 422.273 C 246.860 422.273, 245.179 421.696, 244.070 420.304 C 243.206 419.221, 239.163 408.360, 235.085 396.168 C 231.006 383.975, 227.181 374.014, 226.585 374.032 C 225.988 374.049, 224.803 374.612, 223.951 375.282 M 355 376.399 C 355 377.257, 356.142 377.999, 357.750 378.184 L 360.500 378.500 360.500 400 L 360.500 421.500 357.750 421.816 C 355.882 422.031, 355 422.712, 355 423.939 C 355 425.572, 355.987 425.734, 365.250 425.623 C 373.609 425.523, 375.500 425.225, 375.500 424.010 C 375.500 423.136, 374.259 422.305, 372.500 422.001 L 369.500 421.482 369.230 400.275 L 368.960 379.067 372.230 378.220 C 374.029 377.754, 375.500 376.951, 375.500 376.436 C 375.500 375.921, 370.887 375.372, 365.250 375.215 C 356.774 374.979, 355 375.184, 355 376.399 M 378 376.500 C 378 377.339, 378.892 378, 380.025 378 C 381.278 378, 382.421 378.977, 383.025 380.565 C 383.561 381.976, 384 390.722, 384 400 C 384 409.278, 383.574 417.990, 383.054 419.358 C 382.498 420.821, 381.158 421.981, 379.804 422.173 C 378.537 422.353, 377.500 423.175, 377.500 424 C 377.500 425.238, 379.333 425.500, 388 425.500 C 396.667 425.500, 398.500 425.238, 398.500 424 C 398.500 423.152, 397.413 422.361, 396 422.179 C 394.625 422.003, 392.938 421.129, 392.250 420.238 C 391.480 419.240, 391 415.425, 391 410.309 L 391 402 397.300 402 C 400.867 402, 404.121 402.521, 404.800 403.200 C 405.460 403.860, 406 405.243, 406 406.273 C 406 407.519, 406.586 408.034, 407.750 407.810 C 409.242 407.522, 409.500 406.297, 409.500 399.486 C 409.500 393.054, 409.208 391.500, 408 391.500 C 407.175 391.500, 406.356 392.513, 406.180 393.752 C 406.004 394.991, 404.978 396.476, 403.900 397.053 C 402.822 397.630, 399.591 397.967, 396.720 397.801 L 391.500 397.500 391.212 388.207 L 390.924 378.915 398.712 379.207 C 406.404 379.496, 406.519 379.540, 408 382.728 C 408.825 384.504, 410.063 385.966, 410.750 385.978 C 411.601 385.993, 412 384.245, 412 380.500 L 412 375 395 375 C 380.556 375, 378 375.225, 378 376.500 M 415 375.945 C 415 376.465, 416.238 377.484, 417.750 378.208 L 420.500 379.525 420.784 398.513 C 420.940 408.956, 420.827 418.483, 420.532 419.684 C 420.171 421.151, 419.094 421.971, 417.248 422.184 C 415.612 422.372, 414.500 423.107, 414.500 424 C 414.500 425.238, 416.333 425.500, 425 425.500 C 433.636 425.500, 435.500 425.235, 435.500 424.010 C 435.500 423.136, 434.260 422.306, 432.500 422.002 L 429.500 421.485 429.214 411.742 L 428.928 402 435.366 402 C 441.621 402, 441.834 402.086, 442.850 405 C 443.425 406.650, 444.594 408, 445.448 408 C 446.719 408, 447 406.580, 447 400.167 C 447 395.858, 446.704 392.037, 446.342 391.675 C 445.980 391.313, 445.080 391.519, 444.342 392.131 C 443.604 392.744, 443 394.037, 443 395.006 C 443 395.987, 442.003 397.034, 440.750 397.370 C 439.512 397.701, 436.363 397.979, 433.750 397.986 L 429 398 429 388.500 L 429 379 435.750 379.015 C 439.462 379.024, 443.034 379.370, 443.687 379.786 C 444.341 380.201, 445.356 381.806, 445.944 383.352 C 446.531 384.898, 447.572 385.976, 448.256 385.748 C 448.940 385.520, 449.455 384.808, 449.400 384.167 C 449.345 383.525, 449.233 381.200, 449.150 379 L 449 375 432 375 C 421.987 375, 415 375.389, 415 375.945 M 264.944 378.122 C 264.913 378.330, 264.800 383.113, 264.694 388.750 L 264.500 399.001 269.750 399 C 273.616 399, 275.512 398.488, 276.944 397.056 C 278.014 395.986, 279.184 393.536, 279.545 391.609 C 279.907 389.683, 279.791 386.873, 279.288 385.365 C 278.785 383.856, 277.277 381.819, 275.937 380.839 C 274.597 379.858, 271.587 378.761, 269.250 378.400 C 266.913 378.039, 264.975 377.914, 264.944 378.122 M 316.500 378.881 L 313.500 379.525 313.500 398.852 C 313.500 417.958, 313.527 418.202, 315.861 420.090 C 317.561 421.466, 319.799 422, 323.861 421.998 C 327.253 421.998, 330.866 421.300, 332.929 420.248 C 334.815 419.287, 337.637 416.898, 339.201 414.939 C 341.087 412.576, 342.359 409.440, 342.981 405.614 C 343.574 401.973, 343.564 397.975, 342.955 394.763 C 342.424 391.965, 340.841 388.170, 339.437 386.329 C 338.033 384.488, 335.223 382.148, 333.192 381.128 C 331.161 380.109, 327.250 379.042, 324.500 378.756 C 321.750 378.471, 318.150 378.527, 316.500 378.881 M 220.340 393.333 L 217.309 402 223.222 402 C 228.759 402, 229.093 401.868, 228.473 399.916 C 228.109 398.769, 226.812 394.869, 225.591 391.249 L 223.371 384.666 220.340 393.333 M 122 437.500 C 122 438.836, 142.210 438.977, 301.500 438.753 C 420.122 438.586, 481.085 438.161, 481.250 437.500 C 481.416 436.837, 420.957 436.415, 301.750 436.247 C 142.238 436.023, 122 436.164, 122 437.500 M 124.358 453.091 C 122.631 453.591, 119.031 455.507, 116.360 457.348 C 113.092 459.600, 110.602 462.419, 108.751 465.962 C 106.469 470.330, 106 472.495, 106 478.654 C 106 484.053, 106.534 487.127, 107.958 489.918 C 109.035 492.029, 111.998 495.589, 114.543 497.829 C 118.302 501.138, 120.581 502.215, 126.704 503.578 C 133.084 504.997, 135.327 505.074, 141.341 504.081 C 145.248 503.436, 149.175 502.246, 150.069 501.438 C 150.962 500.629, 152.247 498.120, 152.924 495.861 C 153.869 492.705, 153.881 491.493, 152.973 490.627 C 152.090 489.783, 151.505 489.974, 150.646 491.384 C 150.016 492.420, 148.473 494.528, 147.217 496.067 C 145.962 497.607, 143.321 499.399, 141.349 500.050 C 139.376 500.701, 135.819 501.014, 133.442 500.746 C 131.066 500.479, 127.407 499.373, 125.311 498.291 C 123.215 497.208, 120.263 494.562, 118.752 492.411 C 117.188 490.186, 115.545 485.999, 114.941 482.698 C 114.170 478.482, 114.194 475.381, 115.031 471.350 C 115.841 467.447, 117.212 464.664, 119.657 461.958 C 121.568 459.842, 124.790 457.564, 126.816 456.895 C 128.842 456.226, 132.631 455.705, 135.236 455.739 C 137.950 455.774, 141.366 456.604, 143.236 457.683 C 145.031 458.718, 147.144 461.013, 147.930 462.783 C 148.717 464.552, 150.104 466, 151.013 466 C 152.410 466, 152.594 465.113, 152.208 460.250 C 151.957 457.087, 151.618 454.348, 151.455 454.163 C 151.292 453.977, 149.435 453.425, 147.329 452.936 C 145.223 452.448, 139.900 452.078, 135.500 452.114 C 131.100 452.151, 126.086 452.590, 124.358 453.091 M 176.421 453.774 C 175.150 454.829, 171.720 462.691, 167.598 474 C 163.888 484.175, 160.097 494.075, 159.173 496 C 157.936 498.578, 156.754 499.585, 154.687 499.822 C 152.689 500.052, 151.974 500.627, 152.204 501.822 C 152.474 503.226, 153.833 503.500, 160.514 503.500 C 166.946 503.500, 168.500 503.208, 168.500 502 C 168.500 501.175, 167.488 500.356, 166.250 500.180 C 164.904 499.989, 164.024 499.186, 164.059 498.180 C 164.092 497.256, 165.106 493.800, 166.314 490.500 L 168.508 484.500 175.911 484.500 L 183.315 484.500 185.657 491.445 C 186.946 495.264, 188 498.721, 188 499.125 C 188 499.530, 186.988 500.005, 185.750 500.180 C 184.512 500.356, 183.500 501.175, 183.500 502 C 183.500 503.228, 185.222 503.500, 193 503.500 C 200.778 503.500, 202.500 503.228, 202.500 502 C 202.500 501.175, 201.520 500.360, 200.323 500.190 C 199.125 500.019, 197.577 499.196, 196.883 498.359 C 196.189 497.523, 192.167 486.883, 187.945 474.714 C 183.723 462.546, 179.871 452.468, 179.384 452.318 C 178.898 452.169, 177.564 452.824, 176.421 453.774 M 205 454.500 C 205 455.325, 205.810 456, 206.800 456 C 207.790 456, 209.140 456.540, 209.800 457.200 C 210.650 458.050, 211 464.004, 211 477.618 C 211 488.188, 210.727 497.548, 210.393 498.418 C 210.028 499.369, 208.602 500, 206.820 500 C 204.605 500, 203.935 500.416, 204.177 501.641 C 204.462 503.089, 206.738 503.295, 223.500 503.391 L 242.500 503.500 244.293 498.093 C 245.637 494.041, 245.799 492.412, 244.939 491.593 C 244.101 490.794, 243.484 491.009, 242.646 492.394 C 242.016 493.436, 240.527 495.461, 239.337 496.894 C 237.366 499.269, 236.522 499.500, 229.837 499.500 C 225.802 499.500, 221.713 499.177, 220.750 498.781 C 219.256 498.168, 219 496.668, 219 488.531 L 219 479 223.250 479.014 C 225.588 479.021, 228.512 479.299, 229.750 479.630 C 231.003 479.966, 232 481.013, 232 481.994 C 232 482.963, 232.604 484.256, 233.342 484.869 C 234.080 485.481, 234.980 485.687, 235.342 485.325 C 235.704 484.963, 236 481.142, 236 476.833 C 236 470.780, 235.681 469, 234.598 469 C 233.827 469, 232.725 470.350, 232.150 472 C 231.143 474.888, 230.877 475, 225.052 475 L 219 475 219 466 L 219 457 226.345 457 C 232.101 457, 234.015 457.379, 235.193 458.750 C 236.020 459.712, 236.975 461.288, 237.317 462.250 C 237.658 463.212, 238.626 464, 239.469 464 C 240.414 464, 241 463.091, 241 461.625 C 241 460.319, 240.719 457.844, 240.375 456.125 L 239.750 453 222.375 453 C 207.597 453, 205 453.224, 205 454.500 M 246.446 454.087 C 246.077 454.685, 246.163 455.541, 246.637 455.990 C 247.112 456.439, 248.400 456.968, 249.500 457.166 C 251.405 457.509, 251.513 458.427, 251.784 476.513 C 251.940 486.956, 251.827 496.483, 251.532 497.684 C 251.171 499.151, 250.094 499.971, 248.248 500.184 C 246.612 500.372, 245.500 501.107, 245.500 502 C 245.500 503.233, 247.278 503.500, 255.500 503.500 C 263.584 503.500, 265.500 503.221, 265.500 502.045 C 265.500 501.245, 264.380 500.326, 263.010 500.002 C 261.051 499.540, 260.370 498.571, 259.818 495.457 C 259.431 493.281, 259.089 489.348, 259.058 486.719 C 259.016 483.277, 259.436 481.770, 260.555 481.340 C 261.411 481.012, 263.037 481.157, 264.169 481.662 C 265.301 482.167, 268.989 486.559, 272.364 491.422 C 276.136 496.857, 279.798 500.959, 281.869 502.069 C 284.849 503.668, 287.674 503.854, 306.369 503.688 C 327.370 503.501, 327.535 503.483, 333.267 500.668 C 337.008 498.831, 340.223 496.278, 342.421 493.399 C 344.285 490.958, 346.358 486.677, 347.028 483.885 C 347.697 481.093, 347.974 476.825, 347.641 474.401 C 347.309 471.977, 346.142 468.239, 345.048 466.094 C 343.953 463.948, 341.372 460.803, 339.311 459.105 C 337.250 457.406, 333.484 455.325, 330.943 454.481 C 327.412 453.308, 322.686 453.012, 310.911 453.223 C 298.218 453.451, 295.500 453.757, 295.500 454.955 C 295.500 455.755, 296.625 456.675, 298 457 L 300.500 457.590 300.500 478.545 L 300.500 499.500 297.750 499.816 C 296.238 499.990, 295 500.583, 295 501.134 C 295 501.706, 294.035 501.845, 292.750 501.459 C 291.512 501.087, 288.784 499.144, 286.686 497.141 C 284.589 495.139, 280.826 490.401, 278.325 486.613 L 273.777 479.726 276.908 477.275 C 278.630 475.927, 280.706 473.536, 281.520 471.962 C 282.334 470.387, 282.998 467.614, 282.996 465.800 C 282.994 463.985, 282.084 461.010, 280.974 459.190 C 279.864 457.369, 277.406 455.232, 275.510 454.440 C 273.136 453.448, 268.184 453, 259.591 453 C 251.688 453, 246.872 453.398, 246.446 454.087 M 346.022 454.250 C 346.034 454.938, 347.456 456.175, 349.182 457 C 351.692 458.199, 353.601 460.975, 358.700 470.837 L 365.078 483.174 364.789 491.330 L 364.500 499.486 361.500 500.003 C 359.740 500.306, 358.500 501.136, 358.500 502.010 C 358.500 503.235, 360.363 503.500, 368.986 503.500 C 378.017 503.500, 379.518 503.267, 379.797 501.818 C 380.039 500.561, 379.284 500.055, 376.810 499.818 L 373.500 499.500 373.213 490.281 L 372.926 481.063 379.179 470.434 C 382.618 464.588, 386.521 458.949, 387.851 457.903 C 389.181 456.856, 390.884 456, 391.635 456 C 392.386 456, 393 455.325, 393 454.500 C 393 453.292, 391.444 453, 385 453 C 378.556 453, 377 453.292, 377 454.500 C 377 455.325, 377.648 456, 378.441 456 C 379.234 456, 380.143 456.422, 380.461 456.937 C 380.780 457.453, 378.741 462.178, 375.931 467.437 C 373.121 472.697, 370.641 477, 370.421 477 C 370.200 477, 367.991 472.959, 365.510 468.020 C 363.030 463.081, 361 458.408, 361 457.637 C 361 456.865, 361.945 455.986, 363.101 455.684 C 364.257 455.381, 364.905 454.655, 364.542 454.067 C 364.154 453.440, 360.199 453, 354.941 453 C 348.443 453, 346.006 453.342, 346.022 454.250 M 395 454.525 C 395 455.363, 396.134 456.481, 397.520 457.008 L 400.041 457.966 399.770 478.733 L 399.500 499.500 396.691 499.822 C 394.710 500.049, 393.975 500.631, 394.199 501.794 C 394.471 503.206, 396.380 503.486, 407.504 503.741 C 414.647 503.905, 422.800 503.561, 425.621 502.975 C 428.442 502.389, 432.838 500.586, 435.389 498.968 C 437.940 497.351, 441.344 493.950, 442.954 491.411 C 444.754 488.573, 446.139 484.732, 446.551 481.440 C 446.946 478.276, 446.728 474.037, 446.019 471.080 C 445.234 467.808, 443.454 464.526, 440.877 461.597 C 438.162 458.513, 435.222 456.478, 431.430 455.060 C 426.744 453.306, 423.626 453, 410.462 453 C 397.273 453, 395 453.224, 395 454.525 M 448 454.525 C 448 455.363, 449.134 456.481, 450.520 457.008 L 453.041 457.966 452.770 478.689 L 452.500 499.411 450 500.001 C 448.625 500.325, 447.500 501.234, 447.500 502.020 C 447.500 503.176, 450.148 503.508, 461.325 503.756 C 471.880 503.989, 476.541 503.671, 481.036 502.410 C 484.642 501.398, 488.540 499.374, 491.097 497.185 C 493.393 495.219, 496.332 491.336, 497.626 488.556 C 499.238 485.095, 499.984 481.675, 499.990 477.718 C 499.996 474.538, 499.303 470.263, 498.451 468.218 C 497.599 466.173, 495.255 462.810, 493.242 460.744 C 491.189 458.637, 487.241 456.111, 484.253 454.994 C 479.774 453.318, 476.460 453, 463.462 453 C 450.273 453, 448 453.224, 448 454.525 M 260.750 456.729 C 259.230 457.092, 259 458.442, 259 467.006 C 259 475.841, 259.199 476.928, 260.915 477.473 C 261.968 477.807, 264.106 477.796, 265.665 477.447 C 267.224 477.099, 269.292 476.599, 270.261 476.336 C 271.229 476.073, 272.692 474.563, 273.511 472.979 C 274.330 471.395, 275 468.930, 275 467.500 C 275 466.070, 274.320 463.586, 273.490 461.980 C 272.659 460.374, 271.196 458.659, 270.240 458.170 C 269.283 457.682, 267.150 457.063, 265.500 456.797 C 263.850 456.530, 261.712 456.499, 260.750 456.729 M 312.250 456.777 L 309 457.127 309 477.007 C 309 496.416, 309.053 496.923, 311.223 498.443 C 312.575 499.391, 315.582 500, 318.907 500 C 322.408 500, 325.923 499.248, 328.698 497.904 C 331.576 496.511, 333.835 494.415, 335.433 491.654 C 336.756 489.369, 338.145 484.960, 338.521 481.856 C 339.002 477.882, 338.731 474.586, 337.605 470.713 C 336.502 466.920, 334.945 464.281, 332.589 462.212 C 330.709 460.562, 327.670 458.755, 325.836 458.197 C 324.001 457.639, 320.925 457.013, 319 456.805 C 317.075 456.597, 314.038 456.584, 312.250 456.777 M 411.250 456.777 L 408 457.127 408 476.563 C 408 494.667, 408.137 496.137, 410 498 C 411.539 499.539, 413.333 500, 417.788 500 C 421.802 500, 424.944 499.310, 428.038 497.750 C 431.271 496.120, 433.108 494.294, 434.708 491.124 C 435.922 488.717, 437.219 484.725, 437.589 482.252 C 437.973 479.693, 437.739 475.412, 437.046 472.315 C 436.301 468.986, 434.679 465.565, 432.868 463.502 C 431.239 461.647, 428.015 459.458, 425.703 458.636 C 423.392 457.815, 419.925 456.982, 418 456.785 C 416.075 456.588, 413.038 456.584, 411.250 456.777 M 464.500 456.931 L 461.500 457.518 461.228 476.738 C 460.972 494.887, 461.070 496.070, 462.978 497.978 C 464.545 499.545, 466.293 499.995, 470.750 499.978 C 474.168 499.965, 478.122 499.211, 480.500 498.119 C 482.700 497.109, 485.276 495.409, 486.224 494.342 C 487.172 493.274, 488.634 490.454, 489.474 488.075 C 490.313 485.695, 490.990 481.218, 490.978 478.124 C 490.965 474.800, 490.199 470.865, 489.104 468.500 C 488.086 466.300, 485.958 463.317, 484.376 461.871 C 482.794 460.424, 479.925 458.778, 478 458.212 C 476.075 457.646, 472.925 456.994, 471 456.763 C 469.075 456.532, 466.150 456.608, 464.500 456.931 M 173.277 471.583 L 170.259 479.500 175.743 479.803 C 178.759 479.970, 181.372 479.961, 181.549 479.784 C 181.727 479.607, 180.617 475.908, 179.084 471.564 L 176.296 463.666 173.277 471.583 M 105.669 514.664 C 105.301 515.032, 105 515.933, 105 516.667 C 105 517.773, 138.596 518, 302.573 518 C 490.200 518, 500.130 517.912, 499.810 516.250 C 499.490 514.591, 489.202 514.487, 302.905 514.248 C 194.794 514.109, 106.037 514.296, 105.669 514.664" stroke="none" fill="#fbfbfb" fill-rule="evenodd"/></svg>